<svg width="31" height="36" viewBox="0 0 31 36" fill="none" xmlns="http://www.w3.org/2000/svg">
<path d="M28.918 36H0V23.2H3.2V32.8H25.718V23.2H28.918V36ZM22.518 29.6H6.4V26.4H22.51V29.6H22.518ZM22.518 25.6L6.8 22.322L7.476 19.218L23.198 22.502L22.512 25.6H22.518ZM23.396 21.526L8.836 14.726V14.714L10.184 11.8L24.746 18.6L23.4 21.528L23.396 21.526ZM25.242 17.836L12.902 7.556H12.92L14.946 5.128L27.27 15.4L25.236 17.838L25.242 17.836ZM27.858 14.836L18.244 1.938L20.864 0L30.476 12.902L27.852 14.844L27.858 14.836Z" fill="#C9FFD4"/>
</svg>
